<?xml version="1.0" encoding="UTF-8"?>
<!DOCTYPE svg PUBLIC "-//W3C//DTD SVG 1.1//EN" "http://www.w3.org/Graphics/SVG/1.1/DTD/svg11.dtd">
<svg xmlns="http://www.w3.org/2000/svg" version="1.1" width="26px" height="26px" style="shape-rendering:geometricPrecision; text-rendering:geometricPrecision; image-rendering:optimizeQuality; fill-rule:evenodd; clip-rule:evenodd" xmlns:xlink="http://www.w3.org/1999/xlink">
<g><path style="opacity:0.659" fill="#fefffe" d="M 7.5,0.5 C 20.3202,-0.847289 25.8202,4.81938 24,17.5C 20.3449,24.0702 14.8449,26.2368 7.5,24C 0.929817,20.3449 -1.23685,14.8449 1,7.5C 2.69406,4.64238 4.86073,2.30904 7.5,0.5 Z M 8.5,3.5 C 18.6591,2.15811 22.8257,6.49144 21,16.5C 18.1034,21.1549 13.9367,22.6549 8.5,21C 3.84511,18.1034 2.34511,13.9367 4,8.5C 5.02496,6.31305 6.52496,4.64638 8.5,3.5 Z"/></g>
<g><path style="opacity:0.75" fill="#fefffe" d="M 11.5,7.5 C 15.8914,9.0367 18.0581,12.0367 18,16.5C 16.3163,14.6487 14.4829,12.982 12.5,11.5C 10.5171,12.982 8.68375,14.6487 7,16.5C 6.33333,15.1667 6.33333,13.8333 7,12.5C 8.70733,10.9625 10.2073,9.29585 11.5,7.5 Z"/></g>
</svg>
