<?xml version="1.0" encoding="UTF-8"?>
<!DOCTYPE svg PUBLIC "-//W3C//DTD SVG 1.1//EN" "http://www.w3.org/Graphics/SVG/1.1/DTD/svg11.dtd">
<svg xmlns="http://www.w3.org/2000/svg" version="1.1" width="48px" height="48px" style="shape-rendering:geometricPrecision; text-rendering:geometricPrecision; image-rendering:optimizeQuality; fill-rule:evenodd; clip-rule:evenodd" xmlns:xlink="http://www.w3.org/1999/xlink">
<g><path style="opacity:0.883" fill="#fefffe" d="M 21.5,4.5 C 22.8734,4.34332 24.2068,4.50999 25.5,5C 30,9.5 34.5,14 39,18.5C 39.49,19.7932 39.6567,21.1266 39.5,22.5C 38.1266,22.6567 36.7932,22.49 35.5,22C 32.3333,18.8333 29.1667,15.6667 26,12.5C 25.5002,22.4944 25.3335,32.4944 25.5,42.5C 24.1667,42.5 22.8333,42.5 21.5,42.5C 21.6665,32.4944 21.4998,22.4944 21,12.5C 17.8333,15.6667 14.6667,18.8333 11.5,22C 10.2068,22.49 8.87344,22.6567 7.5,22.5C 7.34332,21.1266 7.50999,19.7932 8,18.5C 12.7033,13.9645 17.2033,9.29788 21.5,4.5 Z"/></g>
</svg>
